/vscmnt/brussel_pixiu_data/_data_brussel/112/vsc11236/PredSimResults/SUBJ04opt3D/expIG/worker_08.mot
version=1
nRows=8
nColumns=50
inDegrees=yes
endheader
                time	         pelvis_tilt	         pelvis_list	     pelvis_rotation	           pelvis_tx	           pelvis_ty	           pelvis_tz	       hip_flexion_r	     hip_adduction_r	      hip_rotation_r	        knee_angle_r	       ankle_angle_r	         mtp_angle_r	       hip_flexion_l	     hip_adduction_l	      hip_rotation_l	        knee_angle_l	       ankle_angle_l	         mtp_angle_l	    lumbar_extension	      lumbar_bending	     lumbar_rotation	 ercspn_r/activation	 intobl_r/activation	 extobl_r/activation	    abd_r/activation	    add_r/activation	hamstrings_r/activation	bifemsh_r/activation	glut_max_r/activation	iliopsoas_r/activation	rect_fem_r/activation	  vasti_r/activation	gastroc_r/activation	 soleus_r/activation	tib_ant_r/activation	 ercspn_l/activation	 intobl_l/activation	 extobl_l/activation	    abd_l/activation	    add_l/activation	hamstrings_l/activation	bifemsh_l/activation	glut_max_l/activation	iliopsoas_l/activation	rect_fem_l/activation	  vasti_l/activation	gastroc_l/activation	 soleus_l/activation	tib_ant_l/activation	
          0.00000000	         -4.09408136	          0.43215591	          8.12366556	          0.00000000	          0.87221840	         -0.00763862	         33.06673151	         -3.23025174	         -8.19398237	        -12.39667033	          6.29700529	          0.25742719	        -15.24378133	         -0.28045208	         -5.88119019	         -8.86750937	          6.55827986	         32.75349996	        -13.22135503	         -1.73389239	         -9.52754741	          0.07875419	          0.19070261	          0.01000024	          0.01894230	          0.39157099	          0.04984646	          0.06055347	          0.10488309	          0.13923871	          0.02245121	          0.02166940	          0.01000034	          0.01000013	          0.37439215	          0.06594785	          0.01000007	          0.01000006	          0.03603611	          0.01000088	          0.02353821	          0.21778673	          0.01400448	          0.12070304	          0.01000522	          0.01000049	          0.30595645	          0.25303613	          0.01000007	
          0.01100580	         -4.13528747	          0.37251496	          7.97593555	          0.01778599	          0.87012691	         -0.00737979	         33.02496345	         -3.00958730	         -8.11870079	        -14.19943467	          6.03677609	          0.23361814	        -15.72996854	         -0.50878169	         -6.42526411	         -9.99444283	          5.72554933	         34.41820371	        -12.75967411	         -1.18502359	         -9.71569579	          0.06654748	          0.16114412	          0.01000014	          0.03818748	          0.33087829	          0.06689333	          0.05116803	          0.16010713	          0.11765692	          0.01897134	          0.04694496	          0.01401044	          0.02278706	          0.40055934	          0.09822334	          0.01000006	          0.01000037	          0.03045057	          0.01000189	          0.01989178	          0.18403045	          0.01183385	          0.11713356	          0.01000019	          0.01000017	          0.25853367	          0.23275570	          0.01000002	
          0.02201159	         -4.16141953	          0.25641093	          7.79178203	          0.03585630	          0.86820259	         -0.00704378	         32.79001679	         -2.76577475	         -8.03113936	        -15.73810254	          5.66899226	          0.22826310	        -16.03957019	         -0.82058076	         -6.99686079	        -11.48920339	          4.83501351	         36.02572365	        -12.27268738	         -0.57281585	         -9.85211450	          0.06676649	          0.13616704	          0.01000011	          0.09034308	          0.29040013	          0.06239212	          0.04323742	          0.13529090	          0.09942027	          0.01603086	          0.10158532	          0.01183890	          0.01925512	          0.44508695	          0.09403295	          0.01000003	          0.01000008	          0.02573078	          0.01000036	          0.01680988	          0.15550618	          0.01000003	          0.11485924	          0.01000044	          0.01000007	          0.21846133	          0.19767806	          0.01000003	
          0.03301739	         -4.17369064	          0.11679088	          7.56784803	          0.05398573	          0.86659740	         -0.00659069	         32.43218527	         -2.49054085	         -8.02759498	        -17.05331494	          5.19639526	          0.20144111	        -16.10266806	         -1.19108850	         -7.59465623	        -13.44803229	          3.85587747	         37.51247814	        -11.79474224	          0.06097301	         -9.93516812	          0.05642552	          0.11506136	          0.01000020	          0.12562446	          0.29104308	          0.06278297	          0.03653606	          0.11432110	          0.08401028	          0.01354615	          0.18179284	          0.01000406	          0.01627065	          0.48122011	          0.12221834	          0.01000007	          0.01000008	          0.02174255	          0.01000107	          0.02133253	          0.13140304	          0.01000011	          0.09705637	          0.01000026	          0.01000015	          0.18460014	          0.16703828	          0.01000002	
          0.04402319	         -4.17400250	         -0.05614521	          7.31800589	          0.07199154	          0.86545403	         -0.00602551	         31.97939898	         -2.17393352	         -8.08415157	        -18.24261518	          4.93235860	          0.17090364	        -15.85486685	         -1.64539314	         -8.20825789	        -15.94709865	          2.77028168	         38.77067549	        -11.34540466	          0.72519755	         -9.97168056	          0.04768005	          0.09722702	          0.01000026	          0.17385896	          0.25550923	          0.06398663	          0.03087336	          0.09660165	          0.07098882	          0.01144660	          0.26997752	          0.01000064	          0.01374883	          0.49548350	          0.15670409	          0.01000017	          0.01000009	          0.01837249	          0.04416706	          0.07328387	          0.11103585	          0.01000010	          0.08201289	          0.01000014	          0.01000008	          0.15598739	          0.14114759	          0.01000003	
          0.05502898	         -4.16590261	         -0.26035685	          7.04879625	          0.08967005	          0.86495988	         -0.00535820	         31.44415548	         -1.81140336	         -8.15251744	        -19.30396928	          4.90991418	          0.14153984	        -15.23696595	         -2.19317128	         -8.84550413	        -19.03956919	          1.55272386	         39.60948525	        -10.94641108	          1.41515997	         -9.96438768	          0.04028990	          0.08215698	          0.01000023	          0.20137873	          0.23132730	          0.06371818	          0.02608832	          0.08162888	          0.05998566	          0.01000024	          0.33499214	          0.01000218	          0.01181021	          0.49294862	          0.17614939	          0.01000018	          0.01000010	          0.01552478	          0.10878761	          0.06193297	          0.09382555	          0.01000005	          0.06930112	          0.01000010	          0.01000004	          0.13180957	          0.11926993	          0.01000007	
          0.06603478	         -4.15262248	         -0.47717488	          6.76061144	          0.10687440	          0.86525199	         -0.00460754	         30.82021964	         -1.41398568	         -8.19918175	        -20.20070432	          5.11718009	          0.11922922	        -14.21206341	         -2.82977780	         -9.51858955	        -22.76882736	          0.26765071	         39.64501944	        -10.61489411	          2.10875939	         -9.91177056	          0.03404513	          0.06942278	          0.01000026	          0.21281030	          0.23238637	          0.07090719	          0.02204506	          0.06897682	          0.05068798	          0.01000023	          0.36857253	          0.01000035	          0.01000013	          0.46845327	          0.18325036	          0.01000025	          0.01000009	          0.01311847	          0.20872825	          0.05233540	          0.07928282	          0.01000005	          0.05855965	          0.01000009	          0.01000002	          0.11137928	          0.10078327	          0.02611812	
          0.07704058	         -4.13621734	         -0.67862680	          6.45277057	          0.12353776	          0.86633714	         -0.00380571	         30.08316259	         -1.00695079	         -8.21145599	        -20.87499781	          5.52243978	          0.10980765	        -12.78177996	         -3.53786692	        -10.22274707	        -27.10505967	         -1.07187431	         38.60855500	        -10.35913627	          2.77518321	         -9.81169407	          0.02876824	          0.05866236	          0.01000025	          0.22706191	          0.22604880	          0.07367148	          0.01862841	          0.05888804	          0.04283142	          0.01000023	          0.38514160	          0.01000148	          0.01000190	          0.42673490	          0.17998837	          0.01000018	          0.01000013	          0.01108514	          0.32015074	          0.04422437	          0.06699418	          0.01000004	          0.04948308	          0.01000008	          0.01000001	          0.09411566	          0.08516201	          0.08808881	
